<svg t="1689671804378" class="icon" viewBox="0 0 1024 1024" version="1.1" xmlns="http://www.w3.org/2000/svg"
  p-id="24739" width="200" height="200" role="quick-btn">
  <path
    d="M197.030957 417.34213c-52.236712 0-94.614891 42.397622-94.614891 94.637404 0 52.256154 42.37818 94.634334 94.614891 94.634334 52.239781 0 94.637404-42.37818 94.637404-94.634334C291.668361 459.739752 249.270738 417.34213 197.030957 417.34213z"
    p-id="24740" fill="#515151"></path>
  <path
    d="M511.999488 417.34213c-52.258201 0-94.614891 42.397622-94.614891 94.637404 0 52.256154 42.35669 94.634334 94.614891 94.634334 52.237735 0 94.594425-42.37818 94.594425-94.634334C606.593913 459.739752 564.237223 417.34213 511.999488 417.34213z"
    p-id="24741" fill="#515151"></path>
  <path
    d="M826.926064 417.34213c-52.197826 0-94.594425 42.397622-94.594425 94.637404 0 52.256154 42.397622 94.634334 94.594425 94.634334 52.259224 0 94.656847-42.37818 94.656847-94.634334C921.582911 459.739752 879.185288 417.34213 826.926064 417.34213z"
    p-id="24742" fill="#515151"></path>
</svg>