<svg t="1690269893526" class="icon" viewBox="0 0 1024 1024" version="1.1" xmlns="http://www.w3.org/2000/svg" p-id="21615" width="200" height="200"><path d="M531.2 889.6c-17.066667 0-32-14.933333-32-32 0-8.533333 4.266667-17.066667 8.533333-21.333333L832 512 509.866667 187.733333c-12.8-12.8-12.8-32-2.133334-44.8s32-12.8 44.8-2.133333c0 0 2.133333 0 2.133334 2.133333l330.666666 332.8c21.333333 21.333333 21.333333 55.466667 0 74.666667L554.666667 881.066667c-6.4 6.4-14.933333 8.533333-23.466667 8.533333z m309.333333-369.066667z" fill="#515151" p-id="21616"></path><path d="M155.733333 889.6c-17.066667 0-32-14.933333-32-32 0-8.533333 4.266667-17.066667 8.533334-21.333333L456.533333 512 132.266667 187.733333c-10.666667-12.8-10.666667-32 2.133333-44.8 12.8-10.666667 32-10.666667 42.666667 0l330.666666 332.8c21.333333 21.333333 21.333333 55.466667 0 74.666667L179.2 881.066667c-6.4 6.4-14.933333 8.533333-23.466667 8.533333z m309.333334-369.066667z" fill="#515151" p-id="21617"></path></svg>